<?xml version='1.0' encoding='UTF-8'?>
<svg xmlns="http://www.w3.org/2000/svg" xmlns:xlink="http://www.w3.org/1999/xlink" version="1.1" preserveAspectRatio="xMidYMid meet" viewBox="286.48 271.18 153.848 179.383" width="153.848" height="179.383"><title>59 logo mark</title><g id="art">
		<path fill="#D8B85F" d="M334.781,405.753c-25.265,0-45.689-20.426-45.689-45.688c0-6.719,1.611-13.438,4.568-19.619l4.837,2.688    c-2.418,5.375-3.762,11.288-3.762,16.932c0,22.038,18.008,40.045,40.046,40.045c5.644,0,11.019-1.075,16.125-3.494    c1.344,1.344,2.688,2.956,4.3,4.3C348.756,404.141,342.037,405.753,334.781,405.753z"/>
		<path fill="#D8B85F" d="M371.601,386.94c-1.344-1.075-2.688-2.419-4.031-3.764c4.839-6.719,7.525-14.782,7.525-23.113    c0-9.407-3.494-18.544-9.676-25.801c-2.419-2.688-5.106-5.106-8.063-7.256c-6.719-4.569-14.513-6.988-22.574-6.988h-30.908    l7.257-46.226h55.901v5.644h-50.796l-5.911,34.938h24.726c9.944,0,19.619,3.225,27.682,9.406c2.688,2.15,5.106,4.3,7.258,6.719    c6.986,8.332,10.75,18.813,10.75,29.295C380.47,369.74,377.514,379.146,371.601,386.94z"/>
		<path fill="#D8B85F" d="M371.601,447.679l36.015-43.001l-6.45,1.344c-3.494,0.808-6.72,1.075-9.677,1.075    c-7.794,0-15.317-1.881-22.307-5.912c-0.269-0.27-0.537-0.27-1.075-0.537l-1.073-0.537c-0.271-0.27-0.538-0.27-0.808-0.538    c-0.807-0.537-1.882-1.344-2.688-1.881c-2.688-2.15-5.106-4.301-7.257-6.72c-0.807-0.807-1.345-1.611-1.882-2.688    c-0.269-0.27-0.269-0.538-0.538-0.808l-0.536-1.074c-0.27-0.27-0.537-0.537-0.537-0.807c-4.569-7.257-6.988-15.588-6.988-24.188    c0-9.944,2.956-19.082,8.869-26.876c1.612,1.075,2.956,2.419,4.031,3.763c-4.839,6.719-7.257,14.782-7.257,23.113    c0,6.988,1.882,13.707,5.375,19.888c0.27,0.538,0.537,1.075,1.075,1.613l0.27,0.269c0.269,0.537,0.537,0.807,0.806,1.345    c0.807,1.074,1.344,1.881,2.15,2.956c2.419,2.688,5.105,5.105,8.063,7.257c1.075,0.806,2.15,1.344,3.227,1.881    c0.269,0.269,0.806,0.269,1.074,0.537l0.537,0.27c0.537,0.27,1.075,0.537,1.612,0.806c5.105,2.42,10.751,3.494,16.395,3.494    c22.038,0,40.046-18.007,40.046-40.045c0-22.038-18.008-40.044-40.046-40.044c-5.644,0-11.02,1.075-16.126,3.494    c-1.344-1.344-2.688-2.956-4.03-4.3c6.182-3.225,13.169-4.837,20.156-4.837c25.264,0,45.688,20.425,45.688,45.688    c0,10.75-3.763,21.232-10.75,29.563l-47.57,56.708h-7.794V447.679z"/>
	</g>
</svg>
