<svg role="img" aria-labelledby="logo-title" xmlns="http://www.w3.org/2000/svg" xmlns:xlink="http://www.w3.org/1999/xlink" width="278.59" height="74.721" viewBox="-5 -5 278.59 74.721">
  <title id="logo-title">59 Real Estate</title>
  <defs>
    <clipPath id="clip-path">
      <rect width="268.59" height="64.72" fill="none"/>
    </clipPath>
  </defs>
  <g id="Logo" transform="translate(0)" clip-path="url(#clip-path)">
    <g id="Group_1" data-name="Group 1" transform="translate(-101.918 -167.852)">
      <path id="Path_1" data-name="Path 1" d="M189.638,190.014h-9.263v19.664h.768V204.76h8.495a.486.486,0,0,0,.184-.048.591.591,0,0,1,.2-.055,5.5,5.5,0,0,1,2.47,4.793v.228h.768v-.228a6.274,6.274,0,0,0-2.211-4.977,7.517,7.517,0,0,0,5.187-7.138A7.23,7.23,0,0,0,189.638,190.014Zm5.829,7.321a6.514,6.514,0,0,1-1.7,4.419h0a6.664,6.664,0,0,1-4.128,2.237h-8.495V190.781h8.487a6.211,6.211,0,0,1,4.136,2.11A6.544,6.544,0,0,1,195.467,197.335Z" fill="#FFFFFF"/>
      <path id="Path_2" data-name="Path 2" d="M199.4,209.678h15.885v-.768H200.17v-9.354h12.658v-.663l-12.658-.1v-8.009h15.117v-.768H199.4Z" fill="#FFFFFF"/>
      <path id="Path_3" data-name="Path 3" d="M235.027,205.822l-7.749-15.97L217.691,209.5l-.088.18h.875l1.5-3.184H234.55l1.475,3.184h.9l-1.694-3.357Zm-.907-.07H220.386l6.892-14.137Z" fill="#FFFFFF"/>
      <path id="Path_4" data-name="Path 4" d="M239.39,190.014h-.768v19.664h13.5v-.768H239.39Z" fill="#FFFFFF"/>
      <path id="Path_5" data-name="Path 5" d="M261.584,209.678h15.885v-.768H262.351v-9.354H275.01v-.663l-12.658-.1v-8.009h15.117v-.768H261.584Z" fill="#FFFFFF"/>
      <path id="Path_6" data-name="Path 6" d="M292.61,202.949c-.765-3.217-4.16-3.564-5.584-3.564-1.885,0-4.253-.514-4.822-2.958a4.516,4.516,0,0,1,1.09-4.064,4.3,4.3,0,0,1,4.261-1.453c3.423.407,3.946,3.068,3.952,4.619,0,.058,0,.1,0,.113l.013.11h.732l.161.013-.037-.155c0-.01,0-.032,0-.064-.073-4.521-3.305-5.338-4.691-5.48a5.662,5.662,0,0,0-5.105,1.675,5.577,5.577,0,0,0-1.217,4.948c.688,3.1,3.859,3.567,5.688,3.567,1.493,0,4.087.384,4.693,2.956a4.553,4.553,0,0,1-1.114,4.113,4.4,4.4,0,0,1-4.263,1.4,4.236,4.236,0,0,1-3.93-4.624v-.166h-.745l-.122.015,0,.121c-.013.513.008,5.021,4.662,5.524a7.338,7.338,0,0,0,1.06.081,5.367,5.367,0,0,0,4.076-1.755,5.6,5.6,0,0,0,1.243-4.976Z" fill="#FFFFFF"/>
      <path id="Path_7" data-name="Path 7" d="M295.988,190.781h7.61v18.9h.742v-18.9h7.61v-.768H295.988Z" fill="#FFFFFF"/>
      <path id="Path_8" data-name="Path 8" d="M331.3,205.822l-7.749-15.97L313.967,209.5l-.088.18h.875l1.5-3.184h14.57l1.476,3.184h.9l-1.693-3.357Zm-7.749-14.207,6.841,14.137H316.661Z" fill="#FFFFFF"/>
      <path id="Path_9" data-name="Path 9" d="M334.846,190.781h7.61v18.9h.742v-18.9h7.609v-.768H334.846Z" fill="#FFFFFF"/>
      <path id="Path_10" data-name="Path 10" d="M370.508,190.781v-.768H354.623v19.664h15.885v-.768H355.391v-9.354h12.658v-.663l-12.658-.1v-8.009Z" fill="#FFFFFF"/>
    </g>
    <g id="Group_2" data-name="Group 2" transform="translate(-247.918 -110.254)">
      <path id="Path_11" data-name="Path 11" d="M264.931,159.357a17.032,17.032,0,0,1-17.013-17.013A17.26,17.26,0,0,1,249.581,135l1.85,1a14.9,14.9,0,0,0,13.5,21.281,14.64,14.64,0,0,0,6-1.283,19.317,19.317,0,0,0,1.559,1.566A16.9,16.9,0,0,1,264.931,159.357Z" fill="#D8B85F"/>
      <path id="Path_12" data-name="Path 12" d="M278.631,152.358a12.086,12.086,0,0,1-1.516-1.4,14.717,14.717,0,0,0,2.752-8.613,14.912,14.912,0,0,0-3.565-9.636,15.254,15.254,0,0,0-2.955-2.673,14.8,14.8,0,0,0-8.416-2.628H253.389l2.745-17.153h20.755v2.079H257.952l-2.185,13h9.164a16.784,16.784,0,0,1,10.312,3.55,17.544,17.544,0,0,1,2.678,2.546,16.97,16.97,0,0,1,4.023,10.918A16.7,16.7,0,0,1,278.631,152.358Z" fill="#D8B85F"/>
      <path id="Path_13" data-name="Path 13" d="M278.6,174.974l13.369-16.011-2.413.518a17.332,17.332,0,0,1-3.6.41,16.929,16.929,0,0,1-8.252-2.157c-.127-.071-.25-.148-.374-.224l-.363-.221c-.116-.069-.234-.138-.346-.213-.348-.229-.682-.48-1.014-.736a17.312,17.312,0,0,1-2.669-2.548c-.257-.305-.495-.626-.729-.95-.07-.1-.135-.2-.2-.295l-.241-.359c-.078-.111-.154-.222-.225-.336a16.9,16.9,0,0,1,.678-19.016,12.211,12.211,0,0,1,1.539,1.407A14.891,14.891,0,0,0,273,150.275c.115.2.235.4.358.589l.079.123c.1.153.193.306.3.454.258.367.531.725.821,1.067a15.005,15.005,0,0,0,2.951,2.679c.372.256.759.493,1.153.715.131.074.272.139.411.2l.208.1c.208.1.413.207.624.3a14.785,14.785,0,0,0,6.053,1.308,14.935,14.935,0,1,0-6.006-28.61,19.69,19.69,0,0,0-1.535-1.565,17,17,0,0,1,24.556,15.24,17.173,17.173,0,0,1-4.013,10.964l-17.678,21.133Z" fill="#D8B85F"/>
    </g>
  </g>
</svg>
