<?xml version="1.0" encoding="utf-8"?>
<!-- Generator: Adobe Illustrator 16.0.0, SVG Export Plug-In . SVG Version: 6.00 Build 0)  -->
<!DOCTYPE svg PUBLIC "-//W3C//DTD SVG 1.1//EN" "http://www.w3.org/Graphics/SVG/1.1/DTD/svg11.dtd">
<svg version="1.1" id="Layer_1" xmlns="http://www.w3.org/2000/svg" xmlns:xlink="http://www.w3.org/1999/xlink" x="0px" y="0px"
	 width="555px" height="506px" viewBox="85.5 154.5 555 506" enable-background="new 85.5 154.5 555 506" xml:space="preserve">
<g>
	<g>
		<path fill="#FFFFFF" d="M132.406,488.262h-24.994v52.945h2.15v-13.17h22.844c0.27,0,0.27,0,0.538,0c0.27,0,0.27,0,0.538-0.27
			c4.031,2.42,6.719,7.258,6.719,12.9v0.538h2.15v-0.538c0-5.375-2.15-10.48-5.913-13.438c8.331-2.688,13.975-10.481,13.975-19.082
			C150.145,497.668,142.619,489.067,132.406,488.262z M148.264,507.881c0,4.568-1.613,8.869-4.569,11.825l0,0
			c-3.225,3.494-6.988,5.375-11.019,5.913H109.83v-35.478h22.846c4.03,0.27,7.794,2.15,11.019,5.646
			C146.65,499.28,148.264,503.313,148.264,507.881z"/>
		<polygon fill="#FFFFFF" points="158.744,541.207 201.478,541.207 201.478,539.057 160.895,539.057 160.895,513.793 
			194.759,513.793 194.759,512.181 160.895,511.912 160.895,490.411 201.478,490.411 201.478,488.262 158.744,488.262 		"/>
		<path fill="#FFFFFF" d="M254.423,530.725l-20.694-43.001L207.928,540.4l-0.27,0.537h2.419l4.031-8.601h39.239l4.031,8.601h2.419
			l-4.569-9.139L254.423,530.725z M252.004,530.456h-36.82l18.544-37.896L252.004,530.456z"/>
		<polygon fill="#FFFFFF" points="266.247,488.262 264.098,488.262 264.098,541.207 300.38,541.207 300.38,539.057 266.247,539.057 
					"/>
		<polygon fill="#FFFFFF" points="325.912,541.207 368.645,541.207 368.645,539.057 328.062,539.057 328.062,513.793 
			361.926,513.793 361.926,512.181 328.062,511.912 328.062,490.411 368.645,490.411 368.645,488.262 325.912,488.262 		"/>
		<path fill="#FFFFFF" d="M409.227,522.931c-2.149-8.6-11.288-9.675-15.051-9.675c-5.105,0-11.556-1.344-12.9-8.063
			c-0.806-3.764,0.271-8.063,2.957-11.021c2.419-3.225,6.45-4.567,11.558-4.031c9.138,1.075,10.48,8.332,10.75,12.363
			c0,0.27,0,0.27,0,0.27v0.269h1.881h0.538v-0.537c0,0,0,0,0-0.269c-0.27-12.096-8.869-14.244-12.632-14.782
			c-5.912-0.537-10.481,0.807-13.706,4.569c-3.227,4.03-4.301,8.867-3.227,13.169c1.881,8.331,10.481,9.675,15.319,9.675
			c4.031,0,11.019,1.075,12.632,8.063c0.806,4.032-0.27,8.332-2.957,11.021c-2.688,3.225-6.45,4.3-11.557,3.763
			c-10.213-1.344-10.75-9.944-10.481-12.363v-0.536h-1.881h-0.269v0.269c0,1.344,0,13.438,12.631,14.782
			c1.075,0.269,1.882,0.269,2.957,0.269c4.3,0,8.063-1.612,11.019-4.838C409.227,532.606,410.302,527.769,409.227,522.931
			L409.227,522.931z"/>
		<polygon fill="#FFFFFF" points="418.363,490.411 438.79,490.411 438.79,541.207 440.671,541.207 440.671,490.411 461.365,490.411 
			461.365,488.262 418.363,488.262 		"/>
		<path fill="#FFFFFF" d="M513.235,530.725l-20.693-43.001L466.74,540.4l-0.27,0.537h2.419l4.031-8.601h39.238l4.03,8.601h2.419
			l-4.567-9.139L513.235,530.725z M492.541,492.563l18.274,37.895h-36.818L492.541,492.563z"/>
		<polygon fill="#FFFFFF" points="522.643,490.411 543.336,490.411 543.336,541.207 545.218,541.207 545.218,490.411 
			565.644,490.411 565.644,488.262 522.643,488.262 		"/>
		<polygon fill="#FFFFFF" points="618.588,490.411 618.588,488.262 575.855,488.262 575.855,541.207 618.588,541.207 
			618.588,539.057 578.006,539.057 578.006,513.793 611.869,513.793 611.869,512.181 578.006,511.912 578.006,490.411 		"/>
	</g>
	<g>
		<path fill="#FFFFFF" d="M334.781,405.753c-25.265,0-45.689-20.426-45.689-45.688c0-6.719,1.611-13.438,4.568-19.619l4.837,2.688
			c-2.418,5.375-3.762,11.288-3.762,16.932c0,22.038,18.008,40.045,40.046,40.045c5.644,0,11.019-1.075,16.125-3.494
			c1.344,1.344,2.688,2.956,4.3,4.3C348.756,404.141,342.037,405.753,334.781,405.753z"/>
		<path fill="#FFFFFF" d="M371.601,386.94c-1.344-1.075-2.688-2.419-4.031-3.764c4.839-6.719,7.525-14.782,7.525-23.113
			c0-9.407-3.494-18.544-9.676-25.801c-2.419-2.688-5.106-5.106-8.063-7.256c-6.719-4.569-14.513-6.988-22.574-6.988h-30.908
			l7.257-46.226h55.901v5.644h-50.796l-5.911,34.938h24.726c9.944,0,19.619,3.225,27.682,9.406c2.688,2.15,5.106,4.3,7.258,6.719
			c6.986,8.332,10.75,18.813,10.75,29.295C380.47,369.74,377.514,379.146,371.601,386.94z"/>
		<path fill="#FFFFFF" d="M371.601,447.679l36.015-43.001l-6.45,1.344c-3.494,0.808-6.72,1.075-9.677,1.075
			c-7.794,0-15.317-1.881-22.307-5.912c-0.269-0.27-0.537-0.27-1.075-0.537l-1.073-0.537c-0.271-0.27-0.538-0.27-0.808-0.538
			c-0.807-0.537-1.882-1.344-2.688-1.881c-2.688-2.15-5.106-4.301-7.257-6.72c-0.807-0.807-1.345-1.611-1.882-2.688
			c-0.269-0.27-0.269-0.538-0.538-0.808l-0.536-1.074c-0.27-0.27-0.537-0.537-0.537-0.807c-4.569-7.257-6.988-15.588-6.988-24.188
			c0-9.944,2.956-19.082,8.869-26.876c1.612,1.075,2.956,2.419,4.031,3.763c-4.839,6.719-7.257,14.782-7.257,23.113
			c0,6.988,1.882,13.707,5.375,19.888c0.27,0.538,0.537,1.075,1.075,1.613l0.27,0.269c0.269,0.537,0.537,0.807,0.806,1.345
			c0.807,1.074,1.344,1.881,2.15,2.956c2.419,2.688,5.105,5.105,8.063,7.257c1.075,0.806,2.15,1.344,3.227,1.881
			c0.269,0.269,0.806,0.269,1.074,0.537l0.537,0.27c0.537,0.27,1.075,0.537,1.612,0.806c5.105,2.42,10.751,3.494,16.395,3.494
			c22.038,0,40.046-18.007,40.046-40.045c0-22.038-18.008-40.044-40.046-40.044c-5.644,0-11.02,1.075-16.126,3.494
			c-1.344-1.344-2.688-2.956-4.03-4.3c6.182-3.225,13.169-4.837,20.156-4.837c25.264,0,45.688,20.425,45.688,45.688
			c0,10.75-3.763,21.232-10.75,29.563l-47.57,56.708h-7.794V447.679z"/>
	</g>
</g>
</svg>
