<?xml version='1.0' encoding='UTF-8'?>
<svg xmlns="http://www.w3.org/2000/svg" xmlns:xlink="http://www.w3.org/1999/xlink" version="1.1" preserveAspectRatio="xMidYMid meet" viewBox="99.744 479.674 526.511 69.201" width="526.511" height="69.201"><title>REAL ESTATE wordmark</title><g id="art">
		<path fill="#FFFFFF" d="M132.406,488.262h-24.994v52.945h2.15v-13.17h22.844c0.27,0,0.27,0,0.538,0c0.27,0,0.27,0,0.538-0.27    c4.031,2.42,6.719,7.258,6.719,12.9v0.538h2.15v-0.538c0-5.375-2.15-10.48-5.913-13.438c8.331-2.688,13.975-10.481,13.975-19.082    C150.145,497.668,142.619,489.067,132.406,488.262z M148.264,507.881c0,4.568-1.613,8.869-4.569,11.825l0,0    c-3.225,3.494-6.988,5.375-11.019,5.913H109.83v-35.478h22.846c4.03,0.27,7.794,2.15,11.019,5.646    C146.65,499.28,148.264,503.313,148.264,507.881z"/>
		<polygon fill="#FFFFFF" points="158.744,541.207 201.478,541.207 201.478,539.057 160.895,539.057 160.895,513.793     194.759,513.793 194.759,512.181 160.895,511.912 160.895,490.411 201.478,490.411 201.478,488.262 158.744,488.262   "/>
		<path fill="#FFFFFF" d="M254.423,530.725l-20.694-43.001L207.928,540.4l-0.27,0.537h2.419l4.031-8.601h39.239l4.031,8.601h2.419    l-4.569-9.139L254.423,530.725z M252.004,530.456h-36.82l18.544-37.896L252.004,530.456z"/>
		<polygon fill="#FFFFFF" points="266.247,488.262 264.098,488.262 264.098,541.207 300.38,541.207 300.38,539.057 266.247,539.057       "/>
		<polygon fill="#FFFFFF" points="325.912,541.207 368.645,541.207 368.645,539.057 328.062,539.057 328.062,513.793     361.926,513.793 361.926,512.181 328.062,511.912 328.062,490.411 368.645,490.411 368.645,488.262 325.912,488.262   "/>
		<path fill="#FFFFFF" d="M409.227,522.931c-2.149-8.6-11.288-9.675-15.051-9.675c-5.105,0-11.556-1.344-12.9-8.063    c-0.806-3.764,0.271-8.063,2.957-11.021c2.419-3.225,6.45-4.567,11.558-4.031c9.138,1.075,10.48,8.332,10.75,12.363    c0,0.27,0,0.27,0,0.27v0.269h1.881h0.538v-0.537c0,0,0,0,0-0.269c-0.27-12.096-8.869-14.244-12.632-14.782    c-5.912-0.537-10.481,0.807-13.706,4.569c-3.227,4.03-4.301,8.867-3.227,13.169c1.881,8.331,10.481,9.675,15.319,9.675    c4.031,0,11.019,1.075,12.632,8.063c0.806,4.032-0.27,8.332-2.957,11.021c-2.688,3.225-6.45,4.3-11.557,3.763    c-10.213-1.344-10.75-9.944-10.481-12.363v-0.536h-1.881h-0.269v0.269c0,1.344,0,13.438,12.631,14.782    c1.075,0.269,1.882,0.269,2.957,0.269c4.3,0,8.063-1.612,11.019-4.838C409.227,532.606,410.302,527.769,409.227,522.931    L409.227,522.931z"/>
		<polygon fill="#FFFFFF" points="418.363,490.411 438.79,490.411 438.79,541.207 440.671,541.207 440.671,490.411 461.365,490.411     461.365,488.262 418.363,488.262   "/>
		<path fill="#FFFFFF" d="M513.235,530.725l-20.693-43.001L466.74,540.4l-0.27,0.537h2.419l4.031-8.601h39.238l4.03,8.601h2.419    l-4.567-9.139L513.235,530.725z M492.541,492.563l18.274,37.895h-36.818L492.541,492.563z"/>
		<polygon fill="#FFFFFF" points="522.643,490.411 543.336,490.411 543.336,541.207 545.218,541.207 545.218,490.411     565.644,490.411 565.644,488.262 522.643,488.262   "/>
		<polygon fill="#FFFFFF" points="618.588,490.411 618.588,488.262 575.855,488.262 575.855,541.207 618.588,541.207     618.588,539.057 578.006,539.057 578.006,513.793 611.869,513.793 611.869,512.181 578.006,511.912 578.006,490.411   "/>
	</g>
	</svg>
